# xmcd
#
# Track frame offsets:
# 150
# 7350
# 22436
# 36699
# 57700
# 83755
# 129693
# 153884
# 172344
# 202870
# 220117
# 235349
# 288725
#
# Disc length: 4258 seconds
#
#
# Revision: 0
# Processed by: cddbd v1.4PL0 Copyright (c) Steve Scherf et al.
# Submitted via: FreeRIP 2.51 
#
DISCID=cf10a00d
DTITLE=Old and In The Way - Live at Merlefest 2001
DYEAR=2001
DGENRE=Bluegrass
TTITLE0=Intro
TTITLE1=Pig in a Pen
TTITLE2=Hard Hearted Heartbreaker
TTITLE3=Great Pretender
TTITLE4=Kissimee Kid
TTITLE5=Midnight Moonlight
TTITLE6=Muleskinner Blues
TTITLE7=Eating Out of Your Hand
TTITLE8=Wild Horses
TTITLE9=Old and In The Way
TTITLE10=Lost In This World Without You
TTITLE11=Land of the Navajo
TTITLE12=High Lonesome Sound
EXTD=Recorded live at Merlefest 2001\nDavid Grisman\nHerb Peterson\nVassar Clements\nPeter Rowan
EXTT0=
EXTT1=
EXTT2=
EXTT3=
EXTT4=
EXTT5=
EXTT6=
EXTT7=
EXTT8=
EXTT9=
EXTT10=
EXTT11=
EXTT12=
PLAYORDER=
